<?xml version="1.0" standalone="no"?>
<!DOCTYPE svg PUBLIC "-//W3C//DTD SVG 20010904//EN"
 "http://www.w3.org/TR/2001/REC-SVG-20010904/DTD/svg10.dtd">
<svg version="1.0" xmlns="http://www.w3.org/2000/svg"
 width="3840.000000pt" height="3840.000000pt" viewBox="0 0 3840.000000 3840.000000"
 preserveAspectRatio="xMidYMid meet">
<metadata>
Created by potrace 1.14, written by Peter Selinger 2001-2017
</metadata>
<g transform="translate(0.000000,3840.000000) scale(0.100000,-0.100000)"
fill="#000000" stroke="none">
<path d="M21390 37119 c-2016 -71 -3884 -740 -5350 -1914 -1621 -1299 -2603
-3088 -2875 -5238 -61 -482 -79 -845 -72 -1402 8 -617 54 -1113 153 -1675 55
-311 95 -480 219 -925 104 -373 226 -827 440 -1645 411 -1570 469 -1769 777
-2665 588 -1713 1481 -3897 2148 -5254 l86 -175 55 85 c31 46 1188 1815 2572
3931 1384 2116 2517 3852 2517 3857 0 5 -212 411 -471 903 -600 1138 -595
1128 -680 1348 -629 1634 -772 3270 -419 4794 349 1504 1192 2872 2465 3997
603 532 1347 1037 2028 1375 64 32 117 62 117 66 0 15 -436 142 -781 228 -740
184 -1447 282 -2234 310 -307 11 -376 11 -695 -1z"/>
<path d="M31808 36887 c-175 -74 -399 -261 -530 -444 -68 -94 -105 -161 -307
-553 -84 -162 -164 -307 -179 -322 -35 -38 -67 -45 -212 -53 -243 -12 -785
-45 -821 -50 -49 -7 -68 11 -78 72 -4 28 -16 64 -25 78 -33 50 -128 71 -174
39 -12 -8 -40 -42 -62 -74 -31 -45 -51 -64 -92 -83 -79 -36 -172 -65 -272 -82
-105 -18 -152 -19 -194 -4 -32 11 -35 16 -57 113 -14 62 -107 116 -176 101
-43 -10 -84 -49 -104 -97 -25 -64 -63 -108 -109 -128 -50 -22 -119 -29 -381
-39 l-200 -7 -63 -34 c-82 -43 -139 -110 -202 -232 -67 -129 -66 -185 2 -207
32 -10 1182 -159 2128 -276 245 -30 462 -60 482 -65 42 -12 62 -40 52 -73 -3
-12 -39 -80 -79 -152 -40 -71 -93 -169 -119 -218 -38 -70 -54 -90 -81 -101
-47 -20 -65 -54 -76 -143 -10 -73 -18 -93 -145 -329 -165 -310 -259 -502 -319
-659 -59 -155 -112 -243 -198 -332 -133 -138 -252 -180 -552 -193 -149 -7
-230 -15 -320 -34 -66 -15 -123 -26 -127 -26 -4 0 -23 -14 -43 -31 -71 -62
-68 -156 5 -171 50 -10 463 -56 665 -73 191 -16 225 -24 308 -68 74 -39 147
-110 221 -218 154 -219 419 -559 442 -565 64 -16 114 35 114 117 0 88 -72 274
-263 674 -95 198 -105 250 -67 326 13 24 145 242 295 484 271 438 543 883 729
1194 54 90 112 178 128 197 36 41 75 45 111 12 33 -30 1338 -1675 1570 -1979
60 -78 72 -89 99 -89 22 0 40 10 66 38 50 53 108 144 129 205 21 62 23 183 4
242 -22 69 -111 256 -166 350 -97 165 -101 228 -25 346 54 84 54 118 -2 174
-54 54 -104 65 -179 40 -65 -22 -88 -12 -129 52 -60 94 -119 337 -104 422 4
19 18 56 31 82 13 27 23 65 23 89 0 37 -6 49 -43 85 -54 54 -98 65 -172 41
-86 -27 -88 -24 -216 223 -61 119 -155 297 -207 396 -131 247 -132 248 -132
300 0 62 14 91 117 246 147 220 334 528 379 624 89 190 137 399 138 600 1 113
-2 136 -21 177 -39 84 -114 107 -215 65z"/>
<path d="M28515 31382 c-110 -38 -209 -116 -293 -230 -89 -120 -169 -271 -340
-642 -424 -915 -649 -1381 -1119 -2320 -1828 -3655 -3898 -7114 -6260 -10457
-1521 -2155 -3159 -4246 -4932 -6298 -1485 -1718 -2650 -2942 -3639 -3822
-651 -579 -1254 -1048 -1920 -1494 -773 -519 -1367 -790 -1937 -886 -168 -28
-512 -25 -655 6 -446 95 -794 343 -1077 766 -374 559 -628 1415 -733 2465 -45
454 -64 913 -80 1884 l-9 598 -49 102 c-27 55 -64 132 -82 169 -91 192 -211
212 -425 71 l-51 -34 -18 -108 c-145 -887 -209 -1612 -209 -2367 0 -385 10
-628 39 -940 63 -694 209 -1401 385 -1873 247 -659 624 -1163 1115 -1488 49
-32 157 -93 239 -135 279 -140 544 -217 900 -260 127 -15 506 -15 650 0 1055
111 2204 648 3535 1654 1801 1361 3463 3045 5170 5237 1436 1844 3241 4531
5108 7602 1238 2036 2567 4337 4624 8008 613 1093 882 1583 1758 3200 288 531
557 1026 598 1100 99 176 121 232 122 300 0 67 -22 107 -81 150 -83 59 -230
78 -334 42z"/>
<path d="M24214 19478 c-231 -354 -1425 -2179 -2653 -4055 l-2232 -3413 155
-467 c431 -1302 626 -2070 718 -2833 30 -252 33 -891 5 -1120 -101 -818 -312
-1529 -659 -2225 -349 -697 -779 -1287 -1367 -1876 -556 -555 -1134 -995
-1847 -1405 -190 -109 -518 -277 -672 -344 -79 -35 -98 -46 -83 -52 83 -30
648 -139 1002 -192 870 -131 1629 -184 2499 -173 598 8 969 32 1490 97 3058
386 5268 1850 6470 4285 488 988 792 2038 976 3370 35 256 33 373 -17 1020
-153 2001 -604 4071 -1314 6035 -182 501 -174 484 -492 1076 -325 605 -864
1615 -1283 2404 -144 272 -265 498 -269 503 -4 4 -196 -282 -427 -635z"/>
</g>
</svg>
